<?xml version="1.0" encoding="utf-8" standalone="no"?>
<!DOCTYPE svg PUBLIC "-//W3C//DTD SVG 1.1//EN" "http://www.w3.org/Graphics/SVG/1.1/DTD/svg11.dtd">
<svg xmlns="http://www.w3.org/2000/svg" xmlns:xl="http://www.w3.org/1999/xlink" version="1.1" viewBox="3158 142 558 521" width="558pt" height="521pt" xmlns:dc="http://purl.org/dc/elements/1.1/"><metadata> Produced by OmniGraffle 6.0.5 <dc:date>2020-10-15 08:49Z</dc:date></metadata><defs/><g stroke="none" stroke-opacity="1" stroke-dasharray="none" fill="none" fill-opacity="1"><title>Canvas 3</title><g><title>Layer 1</title><a xl:href="../Downloads/icon.svg"><path d="M 3435.5905 144.56693 L 3656.693 273.5433 L 3656.693 531.49606 L 3435.5905 660.47244 L 3214.4882 531.49606 L 3214.4882 273.5433 Z" fill="white"/><path d="M 3435.5905 144.56693 L 3656.693 273.5433 L 3656.693 531.49606 L 3435.5905 660.47244 L 3214.4882 531.49606 L 3214.4882 273.5433 Z" stroke="white" stroke-linecap="round" stroke-linejoin="round" stroke-width="1"/></a><rect x="3418.0158" y="290.97637" width="39.68504" height="120" fill="#999"/><rect x="3418.0158" y="290.97637" width="39.68504" height="120" stroke="#999" stroke-linecap="round" stroke-linejoin="round" stroke-width="4"/><path d="M 3554.6456 484.7244 L 3554.6456 325.98425 C 3466.9759 325.98425 3395.9055 397.05464 3395.9055 484.7244 Z" fill="white"/><path d="M 3554.6456 484.7244 L 3554.6456 325.98425 C 3466.9759 325.98425 3395.9055 397.05464 3395.9055 484.7244 Z" stroke="white" stroke-linecap="round" stroke-linejoin="round" stroke-width="1"/><path d="M 3556.063 486.09448 L 3556.063 345.77952 C 3478.5692 345.77952 3415.748 408.60067 3415.748 486.09448 Z" fill="#e6e6e6"/><path d="M 3556.063 486.09448 L 3556.063 345.77952 C 3478.5692 345.77952 3415.748 408.60067 3415.748 486.09448 Z" stroke="#e6e6e6" stroke-linecap="round" stroke-linejoin="round" stroke-width="1"/><path d="M 3319.37 484.7244 L 3319.37 325.98425 C 3407.0398 325.98425 3478.1102 397.05464 3478.1102 484.7244 Z" fill="white"/><path d="M 3319.37 484.7244 L 3319.37 325.98425 C 3407.0398 325.98425 3478.1102 397.05464 3478.1102 484.7244 Z" stroke="white" stroke-linecap="round" stroke-linejoin="round" stroke-width="1"/><path d="M 3556.7716 486.80315 L 3556.7716 389.7165 C 3503.1521 389.7165 3459.685 433.18368 3459.685 486.80315 Z" fill="white"/><path d="M 3556.7716 486.80315 L 3556.7716 389.7165 C 3503.1521 389.7165 3459.685 433.18368 3459.685 486.80315 Z" stroke="white" stroke-linecap="round" stroke-linejoin="round" stroke-width="1"/><path d="M 3317.9527 486.14173 L 3317.9527 345.82677 C 3395.4465 345.82677 3458.2677 408.64792 3458.2677 486.14173 Z" fill="#4c4c4c"/><path d="M 3317.9527 486.14173 L 3317.9527 345.82677 C 3395.4465 345.82677 3458.2677 408.64792 3458.2677 486.14173 Z" stroke="#4c4c4c" stroke-linecap="round" stroke-linejoin="round" stroke-width="1"/><path d="M 3311.5748 489.68503 L 3311.5748 389.76376 C 3368.3253 389.76376 3414.3307 434.50003 3414.3307 489.68503 Z" fill="white"/><path d="M 3311.5748 489.68503 L 3311.5748 389.76376 C 3368.3253 389.76376 3414.3307 434.50003 3414.3307 489.68503 Z" stroke="white" stroke-linecap="round" stroke-linejoin="round" stroke-width="1"/><path d="M 3569.8434 325.63524 L 3622.1439 361.4984 C 3624.4213 363.06006 3625.0015 366.17226 3623.4399 368.44969 C 3623.0914 368.95785 3622.652 369.39723 3622.1439 369.74569 L 3569.8434 405.60885 C 3567.566 407.1705 3564.4538 406.59027 3562.8921 404.31285 C 3562.3213 403.48037 3562.0158 402.4946 3562.0158 401.4852 L 3562.0158 329.75888 C 3562.0158 326.99746 3564.2543 324.75888 3567.0158 324.75888 C 3568.0252 324.75888 3569.011 325.0644 3569.8434 325.63524 Z" fill="#e6e6e6"/><path d="M 3569.8434 325.63524 L 3622.1439 361.4984 C 3624.4213 363.06006 3625.0015 366.17226 3623.4399 368.44969 C 3623.0914 368.95785 3622.652 369.39723 3622.1439 369.74569 L 3569.8434 405.60885 C 3567.566 407.1705 3564.4538 406.59027 3562.8921 404.31285 C 3562.3213 403.48037 3562.0158 402.4946 3562.0158 401.4852 L 3562.0158 329.75888 C 3562.0158 326.99746 3564.2543 324.75888 3567.0158 324.75888 C 3568.0252 324.75888 3569.011 325.0644 3569.8434 325.63524 Z" stroke="#e6e6e6" stroke-linecap="round" stroke-linejoin="round" stroke-width="18"/><path d="M 3302.2826 325.63524 L 3249.9822 361.4984 C 3247.7048 363.06006 3247.1245 366.17226 3248.6862 368.44969 C 3249.0347 368.95785 3249.474 369.39723 3249.9822 369.74569 L 3302.2826 405.60885 C 3304.56 407.1705 3307.6723 406.59027 3309.234 404.31285 C 3309.8048 403.48037 3310.1103 402.4946 3310.1103 401.4852 L 3310.1103 329.75888 C 3310.1103 326.99746 3307.8717 324.75888 3305.1103 324.75888 C 3304.1009 324.75888 3303.1151 325.0644 3302.2826 325.63524 Z" fill="#4c4c4c"/><path d="M 3302.2826 325.63524 L 3249.9822 361.4984 C 3247.7048 363.06006 3247.1245 366.17226 3248.6862 368.44969 C 3249.0347 368.95785 3249.474 369.39723 3249.9822 369.74569 L 3302.2826 405.60885 C 3304.56 407.1705 3307.6723 406.59027 3309.234 404.31285 C 3309.8048 403.48037 3310.1103 402.4946 3310.1103 401.4852 L 3310.1103 329.75888 C 3310.1103 326.99746 3307.8717 324.75888 3305.1103 324.75888 C 3304.1009 324.75888 3303.1151 325.0644 3302.2826 325.63524 Z" stroke="#4c4c4c" stroke-linecap="round" stroke-linejoin="round" stroke-width="18"/><path d="M 3477.8765 275.58968 L 3442.0134 223.28924 C 3440.4517 221.01181 3437.3395 220.43157 3435.0621 221.99323 C 3434.554 222.34169 3434.1146 222.78107 3433.766 223.28924 L 3397.903 275.58968 C 3396.3413 277.8671 3396.9215 280.9793 3399.199 282.54096 C 3400.0314 283.1118 3401.0172 283.41732 3402.0266 283.41732 L 3473.753 283.41732 C 3476.5143 283.41732 3478.753 281.17874 3478.753 278.41732 C 3478.753 277.40792 3478.4474 276.42216 3477.8765 275.58968 Z" fill="#999"/><path d="M 3477.8765 275.58968 L 3442.0134 223.28924 C 3440.4517 221.01181 3437.3395 220.43157 3435.0621 221.99323 C 3434.554 222.34169 3434.1146 222.78107 3433.766 223.28924 L 3397.903 275.58968 C 3396.3413 277.8671 3396.9215 280.9793 3399.199 282.54096 C 3400.0314 283.1118 3401.0172 283.41732 3402.0266 283.41732 L 3473.753 283.41732 C 3476.5143 283.41732 3478.753 281.17874 3478.753 278.41732 C 3478.753 277.40792 3478.4474 276.42216 3477.8765 275.58968 Z" stroke="#999" stroke-linecap="round" stroke-linejoin="round" stroke-width="18"/><circle cx="3437.2913" cy="518.6929" r="68.031604" fill="#4c4c4c"/><circle cx="3437.2913" cy="518.6929" r="68.031604" stroke="#4c4c4c" stroke-linecap="round" stroke-linejoin="round" stroke-width="7"/><circle cx="3437.2913" cy="518.6929" r="25.511852" fill="white"/><circle cx="3437.2913" cy="518.6929" r="25.511852" stroke="white" stroke-linecap="round" stroke-linejoin="round" stroke-width="5"/></g></g></svg>
